<?xml version="1.0" encoding="UTF-8"?>
<svg id="Capa_1" xmlns="http://www.w3.org/2000/svg" version="1.1" viewBox="0 0 800 800">
  <!-- Generator: Adobe Illustrator 29.5.1, SVG Export Plug-In . SVG Version: 2.1.0 Build 141)  -->
  <defs>
    <style>
      .st0 {
        fill: #fff;
      }
    </style>
  </defs>
  <path d="M463.4,58.03v71.57c85,.48,183.93-.87,268.85.4,16.05,0,16.75,14.2,16.95,26.6,1.35,148.55-.33,301.38.8,450-.3,5.85-.15,27.5-.33,33.65-.55,20.57-10.85,21.47-31.42,22.1-3.3,0-13,.15-16.2.3-79.52-.4-159.05-.23-238.65-.23v79.55l-413.4-63.62V121.83l413.4-63.78"/>
  <path class="st0" d="M463.4,153.45h262.5v485h-262.5v-63.45h190.85v-31.87h-190.85v-39.75h190.85v-31.8h-190.78c0-15.6,0-31.17-.15-46.75,31.62,11.41,66.7,7.96,95.5-9.38,29.41-19.33,47.66-51.68,48.97-86.85-35-.25-69.82-.15-104.65-.15,0-34.6.4-69.18-.72-103.7-13.05,2.5-26.07,5.25-39.05,8.03v-79.3"/>
  <path d="M519.15,208.1c56.1,3.51,100.88,48.1,104.65,104.17-35,.4-69.82.25-104.72.25v-104.43"/>
  <path class="st0" d="M177.5,268.15c43.17,2.08,95.5-17.1,131.3,15.28,34.28,41.6,25.2,118.1-25.6,142.97-18.47,7.31-38.49,9.83-58.2,7.3,0,31.1-.15,62.2,0,93.27-15.75-1.35-31.58-2.7-47.33-3.98-.72-85-.87-170,0-255"/>
  <path d="M224.83,311.15c15.67-.73,35-3.57,45.65,11.12,8.64,16.23,9.02,35.61,1.03,52.17-9.07,16.37-29.57,14.8-45.4,16.7-1.68-26.65-1.5-53.28-1.27-80"/>
</svg>