<?xml version="1.0" encoding="UTF-8"?>
<svg id="Capa_1" xmlns="http://www.w3.org/2000/svg" version="1.1" viewBox="0 0 128 128">
  <!-- Generator: Adobe Illustrator 29.5.1, SVG Export Plug-In . SVG Version: 2.1.0 Build 141)  -->
  <path d="M22.67,1.6C10.13,1.6,0,11.73,0,24.27v79.46c0,12.53,10.13,22.67,22.67,22.67h82.67c12.53,0,22.67-10.13,22.67-22.67V24.27c0-12.53-10.13-22.67-22.67-22.67H22.67ZM97.71,28.96h10.83c.27-.05.48.16.53.37v50.88c0,.96.05,2.03.11,3.2.11,1.12.16,2.18.21,3.09,0,.37-.16.69-.53.85-2.79,1.17-5.71,2.03-8.69,2.56-2.72.48-5.44.75-8.21.75-3.95.05-7.89-.75-11.47-2.4-3.36-1.55-6.13-4.11-8.05-7.25-1.97-3.25-2.93-7.31-2.93-12.16-.05-3.95.96-7.83,2.93-11.25,2.03-3.47,4.96-6.35,8.48-8.27,3.73-2.08,8.21-3.09,13.49-3.09.27,0,.64,0,1.12.05s1.01.05,1.65.11v-16.85c0-.37.16-.59.53-.59h0ZM19.63,33.6h12.1c.27,0,.53.05.75.11.21.11.37.27.53.48,1.01,2.29,2.19,4.59,3.41,6.88,1.28,2.29,2.51,4.53,3.84,6.77,1.26,2.22,2.46,4.48,3.57,6.77h.11c1.11-2.31,2.27-4.61,3.47-6.88,1.19-2.25,2.4-4.49,3.62-6.72,1.23-2.24,2.4-4.53,3.57-6.72.05-.21.16-.43.32-.53.21-.11.43-.16.69-.11h11.25c.26-.06.53.11.59.37,0,0,0,0,0,0,.05.05-.05.27-.16.37l-16,26.4,17.07,28c.11.21.16.43.11.64-.05.21-.27.05-.59.11h-12.21c-.85,0-1.44-.05-1.81-.59-1.12-2.24-2.29-4.43-3.41-6.67-1.12-2.19-2.35-4.43-3.63-6.72-1.29-2.3-2.57-4.62-3.84-6.93h-.1c-1.12,2.29-2.35,4.58-3.57,6.88-1.23,2.29-2.45,4.59-3.63,6.83-1.23,2.24-2.45,4.53-3.68,6.72-.21.53-.64.59-1.23.59h-11.73c-.21,0-.37.11-.37-.16-.05-.2,0-.42.11-.59l16.59-27.2-16.16-27.36c-.16-.21-.21-.43-.1-.53.11-.16.32-.21.53-.21h0ZM93.97,56.16c-2.08,0-4.16.43-6.03,1.39-1.82.91-3.38,2.27-4.53,3.95-1.17,1.71-1.76,4-1.76,6.77-.05,1.87.26,3.73.91,5.49.53,1.44,1.33,2.72,2.4,3.79,1.03.98,2.27,1.71,3.63,2.13,1.44.48,2.93.69,4.43.69.8,0,1.55-.05,2.24-.11.69.05,1.28-.06,1.92-.27v-23.47c-.48-.11-.96-.2-1.44-.26-.59-.05-1.17-.11-1.76-.11h0Z"/>
</svg>