<?xml version="1.0" encoding="UTF-8"?>
<svg id="Capa_1" xmlns="http://www.w3.org/2000/svg" version="1.1" viewBox="0 0 31.88 32">
  <!-- Generator: Adobe Illustrator 29.5.1, SVG Export Plug-In . SVG Version: 2.1.0 Build 141)  -->
  <defs>
    <style>
      .st0 {
        fill: #e16ea7;
      }
    </style>
  </defs>
  <path class="st0" d="M11.6,27.96c-1.89,0-3.43-.16-4.62-.49s-2.1-.75-2.74-1.28c-.64-.53-1.08-1.11-1.32-1.73-.24-.62-.36-1.24-.36-1.85,0-1.12.24-2.03.72-2.73s1.11-1.22,1.89-1.55c.78-.33,1.64-.5,2.58-.5.4,0,.85.05,1.36.16.51.11,1.03.3,1.55.58.52.28.99.69,1.4,1.23l.59-.49c-.56-.68-1.19-1.21-1.89-1.57-.7-.36-1.41-.58-2.13-.65-.52-.05-1.02-.19-1.49-.4-.47-.22-.89-.58-1.27-1.11-.38-.52-.69-1.25-.94-2.19-.27-1.01-.6-1.72-.99-2.15-.39-.42-.8-.64-1.23-.66-.14-.31-.25-.74-.32-1.31s-.1-1.18-.09-1.84c0-.66.06-1.29.15-1.9.09-.61.22-1.12.38-1.51.68.05,1.65.13,2.9.22,1.25.09,2.65.14,4.2.14,1.17,0,2.31-.04,3.41-.14,1.11-.09,2-.16,2.69-.22-.29,1.17-.4,2.44-.34,3.81.06,1.37.26,2.75.58,4.16.32,1.4.71,2.75,1.16,4.05l-.03-5.62h-.76c-.2-1.33-.26-2.54-.19-3.62.07-1.08.21-2.01.4-2.78.47.05.97.11,1.5.16.53.05,1.2.1,2.01.13.81.04,1.85.05,3.13.05.54,0,1.16-.02,1.85-.07s1.38-.09,2.05-.15c.67-.05,1.24-.1,1.69-.13.16.4.28.9.36,1.51.08.61.12,1.25.12,1.9s-.04,1.27-.11,1.84-.18,1-.32,1.31c-.54.02-.95.28-1.24.78-.29.5-.53,1.18-.71,2.04-.19.86-.42,1.81-.69,2.88-.45,2.07-1.04,3.84-1.76,5.32-.72,1.48-1.65,2.68-2.78,3.62-1.13.94-2.54,1.62-4.22,2.07-1.68.44-3.73.66-6.14.66Z"/>
</svg>